<svg xmlns="http://www.w3.org/2000/svg" width="50" height="50" fill="none" viewBox="0 0 50 50"><path fill="#1e73be" d="M45.817 23.333c0 13.436-16.525 24.256-20.142 26.459a1.25 1.25 0 0 1-1.35 0C20.714 47.617 4.183 36.797 4.183 23.333V7.175A1.294 1.294 0 0 1 5.45 5.881C18.333 5.556 15.356 0 25 0s6.667 5.556 19.55 5.88a1.294 1.294 0 0 1 1.267 1.295z"/><path fill="url(#a)" d="M42.92 23.555c0 11.58-14.226 20.87-17.342 22.745a1.11 1.11 0 0 1-1.159 0C21.306 44.425 7.081 35.136 7.081 23.555V9.772A1.128 1.128 0 0 1 8.183 8.45C19.263 8.255 16.728 3.514 25 3.514s5.733 4.741 16.817 4.936a1.13 1.13 0 0 1 1.11 1.11z"/><path fill="#50e6ff" d="M34.389 19.489V30.41l-9.361 5.517V24.95z"/><path fill="#c3f1ff" d="m34.389 19.489-9.361 5.517-9.417-5.517 9.417-5.517z"/><path fill="#9cebff" d="M25.028 25.005v10.923L15.61 30.41V19.489z"/><path fill="#c3f1ff" d="m15.611 30.41 9.417-5.46v10.978z"/><path fill="#9cebff" d="m34.389 30.41-9.361-5.46v10.978z"/><defs><linearGradient id="a" x1="25" x2="25" y1="3.497" y2="46.452" gradientUnits="userSpaceOnUse"><stop offset=".225" stop-color="#5ea0ef"/><stop offset="1" stop-color="#1e73be"/></linearGradient></defs></svg>