<svg xmlns="http://www.w3.org/2000/svg" width="50" height="50" fill="none" viewBox="0 0 50 50"><g clip-path="url(#a)"><path fill="#50e6ff" d="M43.08 21.856H27.923a.813.813 0 0 1-.814-.814v-5.79h-4.072v5.79a.817.817 0 0 1-.814.814H6.886a1.63 1.63 0 0 0-1.63 1.63v7.5h4.072V26.82a.817.817 0 0 1 .816-.814h12.892v10.883h4.072V26.022h12.714a.814.814 0 0 1 .814.814v4.25h4.086v-7.6a1.63 1.63 0 0 0-1.642-1.63"/><path fill="#1e73be" d="M31.606 0H18.225c-.816 0-1.478.662-1.478 1.478v13.38c0 .816.662 1.478 1.478 1.478h13.38c.817 0 1.478-.661 1.478-1.478V1.478C33.083.662 32.422 0 31.606 0"/><path fill="#fff" d="M29.033 3.139h-8.239a.91.91 0 0 0-.91.91v8.24c0 .503.407.91.91.91h8.24a.91.91 0 0 0 .91-.91v-8.24a.91.91 0 0 0-.91-.91"/><path fill="url(#b)" d="M12.75 31.02H1.828c-.668 0-1.209.54-1.209 1.208V43.15c0 .667.541 1.208 1.209 1.208H12.75c.667 0 1.208-.54 1.208-1.208V32.228c0-.668-.54-1.209-1.208-1.209"/><path fill="url(#c)" d="M30.53 36.661H19.609c-.667 0-1.208.541-1.208 1.209v10.922c0 .667.54 1.208 1.208 1.208h10.923c.667 0 1.208-.541 1.208-1.208V37.87c0-.668-.541-1.209-1.209-1.209"/><path fill="url(#d)" d="M48.172 31.108H37.25c-.667 0-1.208.541-1.208 1.209v10.922c0 .667.54 1.208 1.208 1.208h10.922c.668 0 1.209-.54 1.209-1.208V32.317c0-.668-.541-1.209-1.209-1.209"/></g><defs><linearGradient id="b" x1="7.29" x2="7.29" y1="31.014" y2="44.355" gradientUnits="userSpaceOnUse"><stop offset=".225" stop-color="#5ea0ef"/><stop offset="1" stop-color="#1e73be"/></linearGradient><linearGradient id="c" x1="25.071" x2="25.071" y1="36.656" y2="49.997" gradientUnits="userSpaceOnUse"><stop offset=".225" stop-color="#5ea0ef"/><stop offset="1" stop-color="#1e73be"/></linearGradient><linearGradient id="d" x1="42.712" x2="42.712" y1="31.103" y2="44.444" gradientUnits="userSpaceOnUse"><stop offset=".225" stop-color="#5ea0ef"/><stop offset="1" stop-color="#1e73be"/></linearGradient><clipPath id="a"><path fill="#fff" d="M0 0h50v50H0z"/></clipPath></defs></svg>