<svg xmlns="http://www.w3.org/2000/svg" width="50" height="50" fill="none" viewBox="0 0 50 50"><path fill="url(#a)" d="M32.247 27.278a12.7 12.7 0 0 0-4.747-2.806V19.25c1.52.213 2.981.73 4.297 1.52a.37.37 0 0 0 .372 0 .36.36 0 0 0 .19-.32v-4.203a.37.37 0 0 0-.19-.322 11.3 11.3 0 0 0-4.669-1.083v-2.484a.365.365 0 0 0-.37-.37h-2.263a.367.367 0 0 0-.37.37v2.559a7.67 7.67 0 0 0-4.389 2.052 6 6 0 0 0-1.858 4.445 5.96 5.96 0 0 0 1.52 4.244 12.85 12.85 0 0 0 4.722 2.795v5c-.92-.123-1.822-.35-2.69-.678a8.7 8.7 0 0 1-2.552-1.278.38.38 0 0 0-.386-.03.38.38 0 0 0-.2.33v4.314a.37.37 0 0 0 .197.328 13 13 0 0 0 5.63 1.47v2.924a.367.367 0 0 0 .37.367h2.253a.37.37 0 0 0 .386-.367v-3.055a8 8 0 0 0 4.583-1.99 5.9 5.9 0 0 0 1.72-4.41 5.75 5.75 0 0 0-1.556-4.1m-3.294 4.272v.028a1.683 1.683 0 0 1-1.464 1.772v-3.67c.961.531 1.453 1.153 1.464 1.87m-5.861-10.397a1.717 1.717 0 0 1 1.405-1.795v3.85a2.42 2.42 0 0 1-1.405-2.055"/><path fill="#50e6ff" d="M5.63 27.842a4.242 4.242 0 1 0 0-8.484 4.242 4.242 0 0 0 0 8.484m5.765-12.678a4.242 4.242 0 1 0 0-8.483 4.242 4.242 0 0 0 0 8.483"/><path fill="url(#b)" d="M32.322 5.253a22 22 0 0 0-2.63-.556 4.2 4.2 0 0 1-.7 3.184A18.958 18.958 0 1 1 10.23 36.578l1.666-.625a.367.367 0 0 0 .106-.628l-5.97-4.922a.37.37 0 0 0-.6.225l-1.244 7.63a.37.37 0 0 0 .494.406l2.453-.922a22.222 22.222 0 1 0 25.186-32.5z"/><path fill="#50e6ff" d="M23.795 9.597a4.242 4.242 0 1 0 0-8.483 4.242 4.242 0 0 0 0 8.483"/><defs><linearGradient id="a" x1="26.028" x2="26.028" y1="11.977" y2="41.193" gradientUnits="userSpaceOnUse"><stop offset=".225" stop-color="#5ea0ef"/><stop offset="1" stop-color="#1e73be"/></linearGradient><linearGradient id="b" x1="26.402" x2="26.402" y1="48.871" y2="4.705" gradientUnits="userSpaceOnUse"><stop stop-color="#1e73be"/><stop offset="1" stop-color="#5ea0ef"/></linearGradient></defs></svg>