<svg xmlns="http://www.w3.org/2000/svg" width="50" height="50" fill="none" viewBox="0 0 50 50"><g clip-path="url(#a)"><path fill="#c3f1ff" d="M21.592 10.228 0 31.819v13.637A4.547 4.547 0 0 0 4.544 50h40.912A4.547 4.547 0 0 0 50 45.456V4.544A4.547 4.547 0 0 0 45.456 0H43.18L27.272 15.908z"/><path fill="url(#b)" d="M21.592 23.864 1.628 43.828a3.32 3.32 0 0 0-1.059 3.83A4.54 4.54 0 0 0 4.544 50h40.912A4.547 4.547 0 0 0 50 45.455V6.82L27.272 29.544z"/><path fill="#50e6ff" d="M27.272 15.908 43.181 0H4.544A4.547 4.547 0 0 0 0 4.544V31.82l21.592-21.591z"/></g><defs><linearGradient id="b" x1="25.176" x2="25.176" y1="6.802" y2="49.989" gradientUnits="userSpaceOnUse"><stop offset=".225" stop-color="#5ea0ef"/><stop offset="1" stop-color="#1e73be"/></linearGradient><clipPath id="a"><path fill="#fff" d="M0 0h50v50H0z"/></clipPath></defs></svg>