<svg width="50" height="50" viewBox="0 0 50 50" fill="none" xmlns="http://www.w3.org/2000/svg">
<g clip-path="url(#clip0_132_309)">
<path d="M21.5917 10.2278L0 31.8194V45.4556C0.0007359 46.6606 0.479761 47.8161 1.33185 48.6682C2.18394 49.5202 3.33941 49.9993 4.54444 50H45.4556C46.6606 49.9993 47.8161 49.5202 48.6682 48.6682C49.5202 47.8161 49.9993 46.6606 50 45.4556V4.54444C49.9993 3.33941 49.5202 2.18394 48.6682 1.33185C47.8161 0.479761 46.6606 0.0007359 45.4556 0L43.1806 0L27.2722 15.9083L21.5917 10.2278Z" fill="#C3F1FF"/>
<path d="M21.5916 23.8638L1.62773 43.8277C1.06131 44.2662 0.6521 44.8764 0.461327 45.5669C0.270553 46.2574 0.308467 46.9911 0.569397 47.6582C0.962407 48.368 1.53838 48.9596 2.23742 49.3714C2.93647 49.7832 3.73307 50.0002 4.5444 49.9999H45.4555C46.6605 49.9992 47.816 49.5201 48.6681 48.668C49.5202 47.816 49.9992 46.6605 50 45.4554V6.81934L27.2722 29.5443L21.5916 23.8638Z" fill="url(#paint0_linear_132_309)"/>
<path d="M27.2722 15.9083L43.1806 0H4.54444C3.33941 0.0007359 2.18394 0.479761 1.33185 1.33185C0.47976 2.18394 0.0007359 3.33941 0 4.54444L0 31.8194L21.5917 10.2278L27.2722 15.9083Z" fill="#50E6FF"/>
</g>
<defs>
<linearGradient id="paint0_linear_132_309" x1="25.1762" y1="6.80211" x2="25.1762" y2="49.9889" gradientUnits="userSpaceOnUse">
<stop offset="0.225" stop-color="#5EA0EF"/>
<stop offset="1" stop-color="#1E73BE"/>
</linearGradient>
<clipPath id="clip0_132_309">
<rect width="50" height="50" fill="white"/>
</clipPath>
</defs>
</svg>
