<svg width="271" height="147" viewBox="0 0 271 147" fill="none" xmlns="http://www.w3.org/2000/svg">
<path fill-rule="evenodd" clip-rule="evenodd" d="M122.3 131.416C122.1 131.116 122.2 130.616 122.6 130.216C123 129.816 123.6 129.716 123.8 130.016C124 130.316 123.9 130.816 123.5 131.216C123.1 131.516 122.5 131.616 122.3 131.416ZM147.6 131.816C147.4 132.116 147.1 132.416 146.8 132.316C146.5 132.316 146.4 132.016 146.6 131.716C146.8 131.416 147.1 131.116 147.4 131.216C147.7 131.216 147.8 131.516 147.6 131.816ZM173.9 126.116C173.6 126.216 173.3 126.016 173.4 125.716C173.4 125.416 173.7 125.116 174.1 125.016C174.4 124.916 174.7 125.116 174.6 125.416C174.5 125.716 174.2 126.016 173.9 126.116ZM221.1 84.3155C220.7 84.5155 220.4 84.4155 220.4 84.0155C220.4 83.7155 220.7 83.3155 221 83.1155C221.4 82.9155 221.7 83.0156 221.7 83.4156C221.7 83.7156 221.4 84.1155 221.1 84.3155ZM170.6 39.6155C171 39.4155 171.4 39.5156 171.4 39.9156C171.4 40.3156 171.1 40.7156 170.7 40.9156C170.3 41.1156 169.9 41.0155 169.9 40.6155C169.9 40.3155 170.2 39.8155 170.6 39.6155ZM176.8 34.6155C177.4 34.4155 177.8 34.7155 177.7 35.2155C177.6 35.7155 177.1 36.3155 176.6 36.5155C176 36.7155 175.6 36.4156 175.7 35.9156C175.7 35.4156 176.2 34.8155 176.8 34.6155ZM183.7 30.4156C184.2 30.7156 184.2 31.4155 183.6 32.1155C183.1 32.8155 182.2 33.1156 181.7 32.9156C181.2 32.6156 181.2 31.9155 181.8 31.2155C182.3 30.5155 183.2 30.2156 183.7 30.4156ZM190.2 26.9156C190.8 27.2156 190.7 28.1155 190.1 28.8155C189.5 29.6155 188.5 29.9155 188 29.6155C187.4 29.3155 187.5 28.4155 188.1 27.7155C188.7 27.0155 189.7 26.6156 190.2 26.9156ZM196.8 24.3155C197.4 24.6155 197.4 25.6156 196.7 26.4156C196 27.2156 195 27.7155 194.3 27.3155C193.7 27.0155 193.7 26.0155 194.4 25.2155C195.1 24.3155 196.2 23.9155 196.8 24.3155ZM203.3 22.4156C204 22.8156 204 23.8155 203.2 24.8155C202.4 25.7155 201.3 26.2155 200.6 25.8155C199.9 25.4155 199.9 24.4156 200.7 23.4156C201.4 22.5156 202.6 22.0156 203.3 22.4156ZM209.6 21.4156C210.4 21.8156 210.3 23.0155 209.5 24.0155C208.7 25.0155 207.3 25.6155 206.6 25.2155C205.8 24.8155 205.9 23.6155 206.7 22.6155C207.5 21.5155 208.8 21.0156 209.6 21.4156ZM215.4 24.2155C214.5 25.4155 213 25.9155 212.1 25.5155C211.2 25.1155 211.3 23.7155 212.2 22.6155C213.1 21.4155 214.6 20.9155 215.5 21.3155C216.4 21.7155 216.4 23.0155 215.4 24.2155ZM220.8 25.2155C219.8 26.4155 218.3 27.0155 217.4 26.6155C216.5 26.1155 216.6 24.7155 217.5 23.5155C218.5 22.3155 220 21.7155 220.9 22.1155C221.9 22.6155 221.8 24.0155 220.8 25.2155ZM225.6 27.1155C226.6 25.8155 226.7 24.4156 225.8 23.9156C224.9 23.4156 223.3 24.0155 222.2 25.3155C221.2 26.6155 221.1 28.0155 222.1 28.5155C223 29.0155 224.6 28.4155 225.6 27.1155ZM229.5 29.8155C228.5 31.0155 227 31.6155 226.1 31.2155C225.2 30.7155 225.3 29.3155 226.2 28.1155C227.2 26.9155 228.7 26.3155 229.6 26.7155C230.6 27.2155 230.5 28.6155 229.5 29.8155ZM232.7 33.2155C233.6 32.0155 233.7 30.7155 232.8 30.3155C231.9 29.8155 230.5 30.4155 229.5 31.6155C228.6 32.8155 228.5 34.1155 229.4 34.5155C230.3 35.0155 231.8 34.4155 232.7 33.2155ZM235 37.4156C234.2 38.4156 232.8 39.0155 232.1 38.6155C231.3 38.2155 231.4 37.0155 232.2 36.0155C233 35.0155 234.4 34.4155 235.1 34.8155C235.9 35.1155 235.8 36.3156 235 37.4156ZM236.4 42.1155C235.6 43.0155 234.5 43.5155 233.8 43.1155C233.1 42.7155 233.2 41.7155 233.9 40.7155C234.7 39.8155 235.8 39.3155 236.5 39.7155C237.2 40.1155 237.1 41.2155 236.4 42.1155ZM236.8 47.5155C236.1 48.3155 235.1 48.8156 234.4 48.4156C233.8 48.1156 233.8 47.1155 234.5 46.3155C235.2 45.5155 236.2 45.0156 236.9 45.4156C237.6 45.7156 237.5 46.6155 236.8 47.5155ZM236.4 53.2155C235.8 54.0155 234.8 54.3155 234.3 54.0155C233.7 53.7155 233.8 52.8155 234.4 52.1155C235 51.3155 236 51.0155 236.5 51.3155C237.1 51.6155 237 52.4155 236.4 53.2155ZM235.1 59.2155C234.5 59.9155 233.7 60.2155 233.2 60.0155C232.7 59.7155 232.7 59.0155 233.3 58.3155C233.9 57.6155 234.7 57.3155 235.2 57.5155C235.7 57.8155 235.7 58.6155 235.1 59.2155ZM232.8 65.4156C232.4 65.9156 231.7 66.2155 231.4 66.0155C231 65.8155 231.1 65.2155 231.5 64.7155C231.9 64.2155 232.6 63.9155 232.9 64.1155C233.2 64.3155 233.2 64.9156 232.8 65.4156ZM229.6 71.6155C229.3 72.0155 228.8 72.2155 228.5 72.0155C228.2 71.8155 228.2 71.4155 228.6 71.0155C228.9 70.6155 229.4 70.4155 229.7 70.6155C230 70.8155 230 71.3155 229.6 71.6155ZM225.5 78.2155C225.1 78.4155 224.8 78.3156 224.8 77.9156C224.8 77.6156 225.1 77.1155 225.5 77.0155C225.9 76.8155 226.2 76.9155 226.2 77.3155C226.2 77.6155 225.9 78.0155 225.5 78.2155ZM177.8 28.1155C178.1 27.9155 178.5 27.9155 178.6 28.2155C178.7 28.5155 178.5 28.8155 178.1 29.1155C177.8 29.3155 177.4 29.3155 177.3 29.0155C177.3 28.7155 177.5 28.3155 177.8 28.1155ZM209.5 101.216C209.9 101.016 210.2 101.016 210.3 101.316C210.4 101.616 210.2 102.016 209.8 102.216C209.5 102.416 209.1 102.416 209 102.116C208.9 101.816 209.1 101.416 209.5 101.216ZM216 95.3155C216.5 95.0155 216.9 95.0156 217 95.4156C217.1 95.8156 216.8 96.3155 216.4 96.6155C215.9 96.9155 215.5 96.9156 215.4 96.5156C215.3 96.1156 215.6 95.6155 216 95.3155ZM222.1 88.8155C222.7 88.4155 223.3 88.5156 223.5 88.9156C223.6 89.4156 223.3 90.1156 222.6 90.5156C222 90.9156 221.3 90.8155 221.2 90.3155C221 89.9155 221.4 89.2155 222.1 88.8155ZM227.4 81.7155C228.2 81.2155 229.1 81.2156 229.3 81.9156C229.5 82.5156 229 83.5155 228.2 84.1155C227.4 84.6155 226.5 84.5156 226.3 83.9156C226.1 83.2156 226.6 82.3155 227.4 81.7155ZM232.1 74.5155C233 73.9155 234 74.0155 234.2 74.7155C234.4 75.4155 233.8 76.5155 232.9 77.1155C232 77.7155 231 77.6156 230.8 76.9156C230.6 76.2156 231.2 75.1155 232.1 74.5155ZM235.9 67.1155C236.9 66.4155 238 66.5155 238.2 67.3155C238.4 68.1155 237.8 69.3155 236.8 70.0155C235.8 70.7155 234.7 70.6155 234.5 69.8155C234.3 69.0155 234.9 67.8155 235.9 67.1155ZM238.8 59.7155C239.9 59.0155 241.1 59.1155 241.4 60.0155C241.7 60.9155 241 62.2155 239.8 63.0155C238.7 63.7155 237.5 63.6155 237.2 62.7155C237 61.8155 237.7 60.5155 238.8 59.7155ZM239 55.7155C238.7 54.7155 239.5 53.2156 240.8 52.4156C242.1 51.6156 243.4 51.7155 243.7 52.7155C244 53.7155 243.2 55.2155 241.9 56.0155C240.6 56.8155 239.3 56.7155 239 55.7155ZM239.6 49.0155C239.3 47.9155 240.1 46.3155 241.6 45.3155C243 44.4155 244.4 44.5155 244.8 45.6155C245.1 46.7155 244.3 48.3155 242.8 49.3155C241.4 50.3155 240 50.1155 239.6 49.0155ZM239.3 42.7155C238.9 41.5155 239.9 39.8155 241.4 38.8155C242.9 37.8155 244.4 38.0155 244.8 39.1155C245.2 40.3155 244.2 42.0155 242.7 43.0155C241.2 44.0155 239.7 43.8155 239.3 42.7155ZM238 36.8155C238.4 38.0155 239.9 38.2155 241.5 37.2155C243 36.2155 244 34.4155 243.6 33.2155C243.2 32.0155 241.7 31.8155 240.1 32.8155C238.6 33.8155 237.7 35.6155 238 36.8155ZM235.9 31.5155C235.5 30.3155 236.5 28.6155 238 27.6155C239.5 26.6155 241 26.8156 241.4 27.9156C241.8 29.1156 240.8 30.8155 239.3 31.8155C237.8 32.8155 236.3 32.7155 235.9 31.5155ZM232.8 27.0155C233.1 28.1155 234.6 28.2155 236 27.3155C237.4 26.4155 238.3 24.7155 238 23.7155C237.7 22.6155 236.2 22.5156 234.8 23.4156C233.3 24.2156 232.5 25.9155 232.8 27.0155ZM228.9 23.2155C228.6 22.2155 229.4 20.7156 230.7 19.9156C232 19.1156 233.3 19.2155 233.6 20.2155C233.9 21.2155 233.1 22.7155 231.8 23.5155C230.5 24.3155 229.2 24.2155 228.9 23.2155ZM224.1 20.4156C223.8 19.5156 224.5 18.2156 225.7 17.4156C226.9 16.7156 228 16.8155 228.3 17.7155C228.6 18.6155 227.9 19.9155 226.7 20.7155C225.6 21.4155 224.4 21.3156 224.1 20.4156ZM218.6 18.6155C218.3 17.8155 219 16.6156 220 15.9156C221 15.2156 222.1 15.3155 222.3 16.1155C222.6 16.9155 221.9 18.1155 220.9 18.8155C219.9 19.5155 218.8 19.4155 218.6 18.6155ZM212.4 17.8155C212.2 17.1155 212.7 16.0156 213.7 15.4156C214.6 14.8156 215.6 14.9155 215.8 15.6155C216 16.3155 215.5 17.4155 214.5 18.0155C213.6 18.6155 212.6 18.5155 212.4 17.8155ZM205.7 18.1155C205.5 17.5155 206 16.5156 206.8 15.9156C207.6 15.4156 208.5 15.4155 208.7 16.1155C208.9 16.7155 208.4 17.7155 207.6 18.3155C206.8 18.8155 205.9 18.8155 205.7 18.1155ZM198.9 19.3155C198.7 18.8155 199.1 18.1155 199.8 17.7155C200.4 17.3155 201.1 17.4155 201.2 17.8155C201.4 18.3155 201 19.0156 200.3 19.4156C199.7 19.8156 199.1 19.8155 198.9 19.3155ZM191.8 21.5155C191.7 21.1155 192 20.6155 192.4 20.3155C192.9 20.0155 193.3 20.0156 193.5 20.4156C193.6 20.8156 193.3 21.3155 192.9 21.6155C192.4 21.9155 191.9 21.9155 191.8 21.5155ZM184.6 24.7155C184.5 24.4155 184.7 24.0155 185.1 23.8155C185.5 23.6155 185.8 23.6156 185.9 23.9156C186 24.2156 185.8 24.6155 185.4 24.8155C185.1 25.1155 184.7 25.0155 184.6 24.7155ZM183.1 123.416C182.7 123.516 182.5 123.316 182.5 123.016C182.5 122.616 182.9 122.316 183.3 122.216C183.7 122.116 183.9 122.316 183.9 122.616C183.8 122.916 183.5 123.316 183.1 123.416ZM197.7 11.7155C198.1 11.6155 198.4 11.8155 198.3 12.1155C198.3 12.5155 197.9 12.9155 197.5 13.0155C197.1 13.1155 196.8 12.9155 196.9 12.6155C196.9 12.3155 197.3 11.9155 197.7 11.7155ZM206.7 10.0155C206.6 10.4155 206.3 10.8156 205.9 10.9156C205.5 11.0156 205.2 10.8156 205.2 10.4156C205.3 10.0156 205.6 9.61554 206 9.51554C206.4 9.41554 206.7 9.61554 206.7 10.0155ZM215 8.91555C214.9 9.41555 214.4 10.0155 213.9 10.2155C213.3 10.4155 212.9 10.1155 213 9.61555C213.1 9.11555 213.6 8.51555 214.1 8.31555C214.7 8.21555 215.1 8.41555 215 8.91555ZM222.9 9.01554C222.8 9.71554 222.1 10.4155 221.4 10.7155C220.7 10.9155 220.1 10.6156 220.2 9.91555C220.3 9.21555 221 8.51554 221.7 8.21554C222.5 8.01554 223 8.31554 222.9 9.01554ZM230.3 10.3155C230.2 11.2155 229.3 12.2155 228.3 12.5155C227.3 12.8155 226.6 12.3156 226.7 11.4156C226.8 10.5156 227.7 9.51554 228.7 9.21554C229.8 8.91554 230.5 9.41555 230.3 10.3155ZM236.7 12.7155C236.6 13.7155 235.6 14.8155 234.5 15.2155C233.4 15.6155 232.6 15.0155 232.8 14.0155C232.9 13.0155 233.9 11.9155 235 11.5155C236 11.2155 236.8 11.7155 236.7 12.7155ZM242.1 16.3155C241.9 17.4155 240.8 18.7155 239.6 19.1155C238.4 19.5155 237.5 18.9155 237.7 17.8155C237.9 16.7155 239 15.4155 240.2 15.0155C241.4 14.6155 242.3 15.2155 242.1 16.3155ZM246.6 20.9156C246.8 19.6156 245.8 19.0156 244.5 19.4156C243.2 19.8156 241.9 21.2155 241.7 22.5155C241.5 23.8155 242.5 24.4155 243.8 24.0155C245.2 23.6155 246.4 22.2156 246.6 20.9156ZM250 26.5155C249.8 27.9155 248.4 29.4156 246.9 29.9156C245.4 30.4156 244.3 29.6155 244.5 28.2155C244.7 26.8155 246.1 25.3155 247.6 24.8155C249.1 24.3155 250.2 25.1155 250 26.5155ZM252.2 32.8155C252 34.4155 250.5 36.1155 248.8 36.6155C247.1 37.1155 246 36.3155 246.2 34.8155C246.4 33.2155 247.9 31.6155 249.6 31.0155C251.2 30.4155 252.4 31.2155 252.2 32.8155ZM253 39.9156C252.8 41.5156 251.2 43.3156 249.4 43.9156C247.6 44.5156 246.4 43.6156 246.6 41.9156C246.8 40.3156 248.4 38.5156 250.2 37.9156C252 37.4156 253.3 38.2156 253 39.9156ZM248.9 51.6155C247.1 52.2155 245.8 51.3155 246.1 49.6155C246.3 47.9155 248 46.1155 249.8 45.5155C251.6 44.9155 252.9 45.8155 252.6 47.5155C252.4 49.2155 250.7 51.1155 248.9 51.6155ZM247.2 59.6155C245.5 60.2155 244.2 59.3155 244.5 57.6155C244.7 56.0155 246.3 54.2155 248.1 53.6155C249.8 53.0155 251.1 53.9155 250.8 55.6155C250.6 57.2155 249 59.0155 247.2 59.6155ZM244.4 67.7155C246.1 67.2155 247.6 65.5156 247.8 63.9156C248 62.3156 246.9 61.5155 245.2 62.0155C243.5 62.5155 242 64.2155 241.8 65.8155C241.6 67.4155 242.7 68.3155 244.4 67.7155ZM240.4 75.8155C241.9 75.3155 243.3 73.8156 243.4 72.4156C243.6 71.0156 242.6 70.3155 241.1 70.7155C239.6 71.2155 238.2 72.7155 238.1 74.1155C237.9 75.5155 239 76.3155 240.4 75.8155ZM235.5 83.8155C234.2 84.2155 233.2 83.6155 233.4 82.3155C233.6 81.0155 234.8 79.7155 236.1 79.2155C237.4 78.8155 238.4 79.4155 238.2 80.7155C238 82.0155 236.8 83.3155 235.5 83.8155ZM229.6 91.5156C228.4 91.9156 227.6 91.3155 227.7 90.2155C227.9 89.1155 229 87.8156 230.2 87.4156C231.4 87.0156 232.2 87.6155 232.1 88.7155C231.9 89.9155 230.8 91.1156 229.6 91.5156ZM223 98.8155C221.9 99.1155 221.2 98.6155 221.3 97.6155C221.4 96.6155 222.4 95.5155 223.5 95.1155C224.6 94.7155 225.3 95.3155 225.2 96.3155C225 97.3155 224 98.4155 223 98.8155ZM215.6 105.516C214.6 105.816 213.9 105.316 214.1 104.416C214.2 103.516 215.1 102.516 216.1 102.216C217.1 101.916 217.8 102.416 217.6 103.316C217.5 104.116 216.6 105.116 215.6 105.516ZM206.7 110.416C206.8 109.716 207.5 109.016 208.2 108.716C208.9 108.516 209.4 108.816 209.3 109.516C209.2 110.216 208.5 110.916 207.8 111.216C207.2 111.416 206.6 111.116 206.7 110.416ZM199.8 116.116C199.3 116.316 198.9 116.016 198.9 115.516C199 115.016 199.5 114.416 200 114.216C200.5 114.016 200.9 114.316 200.9 114.816C200.8 115.416 200.3 116.016 199.8 116.116ZM191.5 120.216C191.1 120.316 190.8 120.116 190.9 119.716C191 119.316 191.3 118.916 191.7 118.816C192.1 118.716 192.4 118.916 192.3 119.316C192.2 119.716 191.9 120.116 191.5 120.216ZM226.4 0.915551C226.2 1.31555 225.7 1.71555 225.3 1.61555C224.9 1.61555 224.8 1.21554 225 0.715539C225.2 0.315539 225.7 -0.0844582 226.1 0.0155418C226.5 0.115542 226.7 0.515551 226.4 0.915551ZM156.3 134.316C156.1 134.716 155.6 135.016 155.3 135.016C154.9 135.016 154.8 134.616 155 134.216C155.2 133.816 155.7 133.516 156.1 133.516C156.4 133.516 156.5 133.816 156.3 134.316ZM164.5 133.516C164.9 133.516 165 134.016 164.8 134.416C164.6 134.916 164 135.216 163.6 135.216C163.2 135.216 163.1 134.716 163.3 134.316C163.6 133.816 164.1 133.516 164.5 133.516ZM173.7 132.116C174.2 132.216 174.4 132.716 174.1 133.316C173.8 133.916 173.1 134.416 172.5 134.316C172 134.216 171.8 133.716 172.1 133.116C172.5 132.516 173.2 132.116 173.7 132.116ZM183.3 129.216C184 129.316 184.2 130.016 183.8 130.816C183.4 131.616 182.4 132.216 181.7 132.216C181 132.116 180.8 131.416 181.2 130.616C181.7 129.816 182.6 129.216 183.3 129.216ZM193.2 124.916C194.2 125.016 194.5 126.016 193.9 127.116C193.3 128.216 192.1 129.016 191.1 128.916C190.2 128.816 189.8 127.816 190.4 126.716C191 125.716 192.2 124.816 193.2 124.916ZM202.9 119.716C204 119.816 204.3 120.916 203.6 122.116C203 123.316 201.6 124.216 200.5 124.116C199.4 124.016 199.1 122.916 199.8 121.716C200.4 120.516 201.8 119.616 202.9 119.716ZM212.3 113.416C213.5 113.516 213.8 114.716 213.1 116.116C212.4 117.516 210.8 118.516 209.7 118.416C208.5 118.316 208.2 117.116 208.9 115.716C209.6 114.216 211.2 113.216 212.3 113.416ZM221.4 106.016C222.7 106.116 223.1 107.516 222.3 109.016C221.5 110.516 219.8 111.616 218.5 111.516C217.2 111.416 216.8 110.016 217.6 108.516C218.4 107.016 220.1 105.916 221.4 106.016ZM230 97.7155C228.5 97.5155 226.6 98.8156 225.7 100.516C224.8 102.216 225.3 103.716 226.7 103.816C228.2 104.016 230.1 102.716 231 101.016C231.9 99.4156 231.5 97.9155 230 97.7155ZM237.8 88.8155C236.2 88.6155 234.1 90.0156 233.1 91.9156C232.1 93.8156 232.6 95.4155 234.2 95.6155C235.8 95.8155 237.9 94.4156 238.9 92.5156C239.9 90.6156 239.4 89.0155 237.8 88.8155ZM239.6 82.7155C240.7 80.7155 242.9 79.3156 244.6 79.4156C246.3 79.6156 246.8 81.3155 245.8 83.3155C244.7 85.3155 242.5 86.7155 240.8 86.6155C239.1 86.5155 238.6 84.7155 239.6 82.7155ZM245.2 73.3155C246.3 71.2155 248.6 69.7156 250.4 69.9156C252.2 70.1156 252.7 71.9155 251.6 74.0155C250.5 76.0155 248.2 77.6156 246.4 77.4156C244.6 77.1156 244.1 75.3155 245.2 73.3155ZM249.8 63.7155C250.9 61.7155 253.1 60.3156 254.8 60.4156C256.5 60.6156 257 62.3155 256 64.3155C254.9 66.3155 252.7 67.7155 251 67.6155C249.3 67.4155 248.7 65.7155 249.8 63.7155ZM253.2 54.2155C252.2 56.1155 252.7 57.7156 254.3 57.9156C255.9 58.1156 258.1 56.7155 259.1 54.8155C260.1 52.9155 259.6 51.3155 258 51.1155C256.4 51.0155 254.2 52.3155 253.2 54.2155ZM255.4 45.0155C256.3 43.3155 258.2 42.1155 259.7 42.2155C261.2 42.3155 261.6 43.8155 260.7 45.5155C259.8 47.2155 257.9 48.4155 256.4 48.3155C255 48.2155 254.5 46.7155 255.4 45.0155ZM256.2 36.3155C257 34.8155 258.8 33.7155 260.1 33.8155C261.4 33.9155 261.8 35.3155 261 36.8155C260.2 38.3155 258.4 39.4155 257.1 39.3155C255.8 39.1155 255.4 37.8155 256.2 36.3155ZM255.5 28.1155C256.2 26.7155 257.8 25.7155 259 25.8155C260.2 25.9155 260.6 27.1155 259.8 28.5155C259.1 29.9155 257.5 30.9155 256.3 30.8155C255.2 30.7155 254.8 29.5155 255.5 28.1155ZM253.5 20.8155C254.2 19.6155 255.6 18.7155 256.7 18.8155C257.8 18.9155 258.1 20.0155 257.4 21.2155C256.7 22.4155 255.3 23.3155 254.2 23.2155C253.2 23.1155 252.8 22.0155 253.5 20.8155ZM250.1 14.4156C250.7 13.3156 252 12.5155 252.9 12.6155C253.9 12.7155 254.2 13.7155 253.6 14.8155C253 15.9155 251.7 16.7155 250.8 16.6155C249.8 16.5155 249.5 15.5156 250.1 14.4156ZM245.6 9.21554C246 8.41554 247 7.81555 247.7 7.81555C248.4 7.91555 248.7 8.61555 248.2 9.41555C247.8 10.2156 246.8 10.8155 246.1 10.8155C245.4 10.7155 245.2 10.0155 245.6 9.21554ZM239.9 5.11555C240.2 4.51555 240.9 4.01555 241.5 4.11555C242 4.21555 242.2 4.71555 241.9 5.31555C241.6 5.91555 240.9 6.41555 240.3 6.31555C239.7 6.21555 239.5 5.71555 239.9 5.11555ZM233.3 3.21554C232.9 3.21554 232.8 2.71554 233 2.31554C233.3 1.81554 233.8 1.51554 234.2 1.51554C234.6 1.51554 234.7 2.01555 234.5 2.41555C234.2 2.91555 233.7 3.21554 233.3 3.21554ZM259.4 4.81555C258.9 5.21555 258.4 5.31554 258.1 5.01554C257.8 4.71554 258 4.11554 258.5 3.71554C259 3.31554 259.5 3.21554 259.8 3.51554C260 3.81554 259.8 4.41555 259.4 4.81555ZM264.1 11.7155C263.6 12.1155 263 12.3156 262.7 11.9156C262.4 11.6156 262.6 11.0155 263.1 10.5155C263.6 10.1155 264.2 9.91555 264.5 10.3155C264.8 10.6155 264.6 11.2155 264.1 11.7155ZM267.5 19.9156C266.9 20.5156 266 20.6155 265.7 20.2155C265.3 19.8155 265.6 19.0156 266.2 18.4156C266.8 17.8156 267.7 17.7155 268 18.1155C268.4 18.5155 268.1 19.3156 267.5 19.9156ZM269.3 29.1155C268.4 29.9155 267.4 30.1155 266.9 29.5155C266.4 29.0155 266.7 27.9155 267.6 27.1155C268.5 26.3155 269.5 26.1155 270 26.7155C270.5 27.3155 270.2 28.3155 269.3 29.1155ZM269.6 39.3155C268.5 40.4155 267 40.6156 266.4 39.9156C265.8 39.2156 266.2 37.7155 267.3 36.7155C268.4 35.6155 269.9 35.4155 270.5 36.1155C271.1 36.8155 270.7 38.2155 269.6 39.3155ZM268.1 49.9156C266.8 51.1156 265.2 51.4155 264.6 50.5155C263.9 49.7155 264.4 48.1156 265.6 46.9156C266.9 45.7156 268.5 45.4155 269.2 46.3155C269.8 47.1155 269.4 48.7156 268.1 49.9156ZM265.1 60.9156C263.7 62.2156 261.9 62.5155 261.2 61.6155C260.4 60.7155 261 58.9155 262.4 57.6155C263.8 56.3155 265.6 56.0156 266.3 56.9156C267 57.8156 266.5 59.6156 265.1 60.9156ZM260.6 72.0155C262.2 70.6155 262.7 68.6155 261.9 67.6155C261.1 66.6155 259.1 67.0156 257.5 68.4156C255.9 69.8156 255.4 71.8155 256.2 72.8155C257.1 73.8155 259 73.5155 260.6 72.0155ZM254.7 83.2155C256.4 81.6155 257.1 79.4155 256.1 78.3155C255.2 77.2155 253 77.6155 251.3 79.2155C249.6 80.8155 248.9 83.0155 249.9 84.1155C250.8 85.2155 253 84.8155 254.7 83.2155ZM242.2 95.0156C241.2 93.8156 241.9 91.3156 243.8 89.5156C245.7 87.7156 248.1 87.3155 249.2 88.5155C250.2 89.7155 249.5 92.2156 247.6 94.0156C245.7 95.8156 243.3 96.3156 242.2 95.0156ZM233.7 105.416C232.6 104.116 233.3 101.516 235.4 99.6155C237.4 97.7155 240 97.3155 241.1 98.6155C242.2 99.9155 241.4 102.516 239.4 104.416C237.3 106.216 234.8 106.716 233.7 105.416ZM224.3 114.916C225.4 116.216 228 115.816 230.1 113.816C232.2 111.916 233 109.216 231.8 107.816C230.7 106.516 228 106.916 226 108.916C223.9 110.916 223.1 113.616 224.3 114.916ZM214.4 123.316C215.5 124.616 218 124.116 220 122.316C222 120.416 222.8 117.816 221.7 116.516C220.6 115.216 218.1 115.716 216.1 117.516C214 119.416 213.3 122.016 214.4 123.316ZM204 130.616C205 131.816 207.4 131.416 209.3 129.616C211.2 127.816 211.9 125.416 210.9 124.116C209.9 122.916 207.5 123.316 205.6 125.116C203.6 126.916 202.9 129.416 204 130.616ZM193.5 136.516C192.6 135.416 193.2 133.216 194.9 131.616C196.6 130.016 198.8 129.616 199.7 130.716C200.6 131.816 200 134.016 198.3 135.616C196.5 137.316 194.4 137.716 193.5 136.516ZM182.8 141.116C182 140.116 182.5 138.116 184 136.716C185.5 135.316 187.5 134.916 188.3 135.916C189.2 136.916 188.6 138.916 187.1 140.316C185.6 141.816 183.6 142.116 182.8 141.116ZM172.2 144.316C171.4 143.416 171.9 141.616 173.3 140.316C174.7 139.016 176.4 138.716 177.2 139.616C178 140.516 177.5 142.316 176.1 143.616C174.7 144.916 173 145.216 172.2 144.316ZM161.9 146.016C161.2 145.216 161.6 143.616 162.9 142.416C164.1 141.216 165.7 141.016 166.4 141.816C167.1 142.616 166.6 144.216 165.4 145.416C164.1 146.516 162.6 146.816 161.9 146.016ZM152.1 146.216C151.5 145.516 151.9 144.016 153 143.016C154.1 142.016 155.5 141.716 156.1 142.416C156.7 143.116 156.3 144.616 155.2 145.616C154.1 146.616 152.7 146.916 152.1 146.216ZM143.3 144.516C142.8 144.016 143.1 142.916 144 142.116C144.8 141.316 145.9 141.116 146.4 141.716C146.9 142.216 146.6 143.316 145.7 144.116C144.8 144.916 143.8 145.116 143.3 144.516ZM135.3 141.416C134.9 141.016 135.2 140.216 135.8 139.616C136.4 139.016 137.2 138.916 137.6 139.316C138 139.716 137.7 140.516 137.1 141.116C136.4 141.716 135.6 141.816 135.3 141.416ZM128.2 136.916C127.9 136.616 128.1 136.016 128.6 135.516C129.1 135.116 129.7 134.916 129.9 135.316C130.2 135.616 130 136.216 129.5 136.716C129.1 137.116 128.5 137.316 128.2 136.916Z" fill="url(#paint0_linear_9464_14298)"/>
<path fill-rule="evenodd" clip-rule="evenodd" d="M26.6 66.6156H10.8V66.0156C10.8 64.5156 11.1 62.8156 12.4 61.9156C13.7 61.0156 15.6 60.8156 17.2 60.8156C19.3 60.8156 21.4 61.0156 23.5 61.2156V55.1156C21.4 54.7156 19.3 54.4156 17.2 54.4156C9.2 54.4156 4.1 57.6156 4.1 66.0156V66.6156H0V73.0156H4.1V94.5156H10.8V73.0156H19.9V94.5156H26.6V66.6156ZM40.7 66.6156H34V94.5156H40.7V79.4156C40.7 77.4156 41.1 75.3156 42.5 73.8156C43.8 72.5156 45.5 71.9156 47.3 71.9156C48.9 71.9156 50.5 72.3156 51.7 73.5156C53 74.7156 53.4 76.4156 53.4 78.1156V94.4156H60.1V77.3156C60.1 74.2156 59.4 71.1156 57.1 68.8156C55.1 66.7156 52.5 65.8156 49.6 65.8156C46.3 65.8156 43.3 66.8156 41.4 69.7156L40.7 70.7156V66.6156ZM73.8 66.6156H67.1V106.016H73.8V90.5156L74.4 91.3156C76.7 94.2156 79.8 95.3156 83.4 95.3156C87.2 95.3156 90.4 93.8156 93 91.0156C95.8 88.1156 97 84.5156 97 80.5156C97 76.5156 95.8 72.9156 93 70.0156C90.4 67.2156 87.2 65.7156 83.4 65.7156C79.8 65.7156 76.7 66.9156 74.4 69.7156L73.8 70.5156V66.6156ZM76.1 86.6156C74.5 84.9156 73.8 82.9156 73.8 80.5156C73.8 78.2156 74.5 76.1156 76.1 74.4156C77.7 72.8156 79.7 72.0156 82 72.0156C84.3 72.0156 86.3 72.7156 88 74.4156C89.7 76.1156 90.4 78.1156 90.4 80.5156C90.4 82.8156 89.7 84.9156 88 86.6156C86.4 88.2156 84.3 89.0156 82 89.0156C79.8 89.0156 77.7 88.2156 76.1 86.6156ZM130.2 83.2156C130.3 82.3156 130.4 81.4156 130.4 80.5156C130.4 76.5156 129.2 72.9156 126.4 70.0156C123.7 67.1156 120.2 65.8156 116.3 65.8156C112.2 65.8156 108.6 67.1156 105.7 70.0156C102.8 72.9156 101.6 76.5156 101.6 80.5156C101.6 84.6156 102.9 88.2156 105.8 91.1156C108.8 94.1156 112.7 95.3156 116.9 95.3156C121.8 95.3156 126 93.6156 128.9 89.6156L123.5 86.5156C121.9 88.5156 119.6 89.3156 117 89.3156C112.9 89.3156 109.7 87.8156 108.6 83.7156L108.5 83.2156H130.2ZM108.4 77.8156C108.8 76.0156 109.7 74.5156 111.1 73.3156C112.6 72.1156 114.4 71.7156 116.2 71.7156C117.9 71.7156 119.5 72.2156 120.9 73.2156C122.4 74.3156 123.3 76.0156 123.6 77.8156L123.7 78.2156H108.2L108.4 77.8156ZM142.9 66.6156H136.2V94.5156H142.9V81.2156C142.9 78.7156 143.6 76.4156 145.7 75.0156C147.5 73.8156 149.5 73.4156 151.6 73.5156V66.0156C149.9 66.1156 148.3 66.5156 146.8 67.3156C145.2 68.2156 144.2 69.6156 143.5 71.2156L142.8 73.0156V66.6156H142.9ZM160 62.4156C161.2 62.4156 162.2 62.0156 163 61.2156C163.8 60.4156 164.2 59.4156 164.2 58.3156C164.2 57.1156 163.8 56.2156 163 55.3156C162.2 54.5156 161.2 54.0156 160 54.0156C158.8 54.0156 157.9 54.4156 157.1 55.3156C156.3 56.1156 155.9 57.1156 155.9 58.3156C155.9 59.5156 156.3 60.4156 157.1 61.2156C157.8 62.0156 158.8 62.4156 160 62.4156ZM156.6 94.5156H163.3V66.6156H156.6V94.5156ZM186.5 73.0156V66.6156H180V58.7156L173.3 60.7156V66.6156H168.3V73.0156H173.3V85.3156C173.3 88.1156 173.8 91.4156 176.3 93.2156C178.9 95.1156 183.4 94.9156 186.5 94.6156V88.6156C185.4 88.7156 184.3 88.7156 183.3 88.6156C182.4 88.5156 181.6 88.3156 180.9 87.7156C180.2 87.1156 180 86.1156 180 85.3156V73.0156H186.5ZM195.7 62.4156C196.9 62.4156 197.9 62.0156 198.7 61.2156C199.5 60.4156 199.9 59.4156 199.9 58.3156C199.9 57.1156 199.5 56.2156 198.7 55.3156C197.9 54.5156 196.9 54.0156 195.7 54.0156C194.5 54.0156 193.6 54.4156 192.8 55.3156C192 56.1156 191.6 57.1156 191.6 58.3156C191.6 59.5156 192 60.4156 192.8 61.2156C193.6 62.0156 194.5 62.4156 195.7 62.4156ZM192.4 94.5156H199.1V66.6156H192.4V94.5156Z" fill="#0E4F5E"/>
<path d="M214.339 60.2956C214.697 60.2956 214.957 60.2241 215.113 60.0876C215.269 59.9576 215.353 59.7366 215.353 59.4246C215.353 59.1191 215.269 58.9046 215.113 58.7681C214.957 58.6381 214.697 58.5731 214.339 58.5731H213.611V60.2956H214.339ZM213.611 61.4851V64.0201H211.882V57.3186H214.521C215.405 57.3186 216.049 57.4681 216.458 57.7671C216.874 58.0596 217.076 58.5276 217.076 59.1711C217.076 59.6131 216.972 59.9771 216.757 60.2631C216.543 60.5426 216.224 60.7571 215.789 60.8871C216.029 60.9456 216.237 61.0691 216.426 61.2576C216.614 61.4461 216.803 61.7321 216.991 62.1221L217.934 64.0201H216.094L215.275 62.3561C215.113 62.0246 214.944 61.7906 214.775 61.6736C214.606 61.5501 214.378 61.4851 214.099 61.4851H213.611Z" fill="#0E4F5E"/>
<path d="M214.69 54.3156C218.28 54.3156 221.19 57.2257 221.19 60.8156C221.19 64.4054 218.28 67.3156 214.69 67.3156C211.101 67.3156 208.19 64.4054 208.19 60.8156C208.19 57.2257 211.101 54.3156 214.69 54.3156ZM214.69 55.6156C211.819 55.6156 209.49 57.9437 209.49 60.8156C209.49 63.6874 211.819 66.0156 214.69 66.0156C217.562 66.0156 219.89 63.6874 219.89 60.8156C219.89 57.9437 217.562 55.6156 214.69 55.6156Z" fill="#0E4F5E"/>
<defs>
<linearGradient id="paint0_linear_9464_14298" x1="196.826" y1="145.983" x2="196.079" y2="4.61005" gradientUnits="userSpaceOnUse">
<stop stop-color="#0E4F5E"/>
<stop offset="1" stop-color="#0E9F90"/>
</linearGradient>
</defs>
</svg>
