<svg xmlns="http://www.w3.org/2000/svg" width="111" height="30" fill="none" viewBox="0 0 111 30"><g clip-path="url(#a)"><path fill="#03282c" d="M9.455 25.202c-.4-1.974-1.299-4.684-4.328-13.116H0l7.024 17.499h4.794l6.658-17.5H13.45c-2.863 8.265-3.661 10.908-3.994 13.117m18.069-13.484c-5.26 0-8.989 3.915-8.989 9.168 0 5.42 3.862 9.033 9.255 9.033 3.426 0 6.355-1.786 7.747-4.333l-3.519-1.923c-.699 1.371-2.13 2.342-4.194 2.342-2.43 0-4.328-1.54-4.56-3.68H36.48c.233-7.027-3.662-10.607-8.955-10.607m-4.295 7.294c.167-2.04 1.931-3.48 4.295-3.48s4.061 1.44 4.161 3.48zm32.226-6.926h-4.728v17.499h4.727zM78.43 8.205a8.2 8.2 0 0 1 2.097.3V4.693a9.9 9.9 0 0 0-2.996-.469c-3.13 0-6.26 1.673-6.26 6.625v1.238h-6.893v-.569c-.267-2.51.732-3.312 2.43-3.312.71.008 1.415.11 2.098.3V4.693a9.9 9.9 0 0 0-2.996-.469c-3.13 0-6.26 1.673-6.26 6.625v1.238h-2.064v3.712h2.065v13.786h4.727V15.798h6.894v13.786H76V15.798h4.527v-3.712H76v-.569c-.266-2.51.733-3.312 2.43-3.312m-34.876 9.243v-.683l-.514-4.679h-4.113v17.499h4.627v-7.091c0-3.7 2.541-5.993 5.33-5.993v-4.616c-3.274.328-5.33 2.222-5.33 5.563m11.94-11.683H50.69v3.808h4.804z"/><path fill="#14e5c5" d="M101.397 11.934v11.811h.04c.789-5.966 4.301-9.866 9.563-11.722V0c-6.051 1.06-9.603 4.906-9.603 11.934M90.113 22.035l9.603 7.956V14.212l-9.603-7.955z"/></g><defs><clipPath id="a"><path fill="#fff" d="M0 0h111v30H0z"/></clipPath></defs></svg>