<svg xmlns="http://www.w3.org/2000/svg" width="271" height="147" fill="none" viewBox="0 0 271 147"><path fill="url(#a)" fill-rule="evenodd" d="M122.3 131.416c-.2-.3-.1-.8.3-1.2s1-.5 1.2-.2.1.8-.3 1.2c-.4.3-1 .4-1.2.2m25.3.4c-.2.3-.5.6-.8.5-.3 0-.4-.3-.2-.6s.5-.6.8-.5c.3 0 .4.3.2.6m26.3-5.7c-.3.1-.6-.1-.5-.4 0-.3.3-.6.7-.7.3-.1.6.1.5.4s-.4.6-.7.7m47.2-41.8c-.4.2-.7.1-.7-.3 0-.3.3-.7.6-.9.4-.2.7-.1.7.3 0 .3-.3.7-.6.9m-50.5-44.7c.4-.2.8-.1.8.3s-.3.8-.7 1-.8.1-.8-.3c0-.3.3-.8.7-1m6.2-5c.6-.2 1 .1.9.6s-.6 1.1-1.1 1.3c-.6.2-1-.1-.9-.6 0-.5.5-1.1 1.1-1.3m6.9-4.2c.5.3.5 1-.1 1.7-.5.7-1.4 1-1.9.8-.5-.3-.5-1 .1-1.7.5-.7 1.4-1 1.9-.8m6.5-3.5c.6.3.5 1.2-.1 1.9-.6.8-1.6 1.1-2.1.8-.6-.3-.5-1.2.1-1.9s1.6-1.1 2.1-.8m6.6-2.6c.6.3.6 1.3-.1 2.1s-1.7 1.3-2.4.9c-.6-.3-.6-1.3.1-2.1.7-.9 1.8-1.3 2.4-.9m6.5-1.9c.7.4.7 1.4-.1 2.4-.8.9-1.9 1.4-2.6 1s-.7-1.4.1-2.4c.7-.9 1.9-1.4 2.6-1m6.3-1c.8.4.7 1.6-.1 2.6s-2.2 1.6-2.9 1.2c-.8-.4-.7-1.6.1-2.6.8-1.1 2.1-1.6 2.9-1.2m5.8 2.8c-.9 1.2-2.4 1.7-3.3 1.3s-.8-1.8.1-2.9c.9-1.2 2.4-1.7 3.3-1.3s.9 1.7-.1 2.9m5.4 1c-1 1.2-2.5 1.8-3.4 1.4-.9-.5-.8-1.9.1-3.1 1-1.2 2.5-1.8 3.4-1.4 1 .5.9 1.9-.1 3.1m4.8 1.9c1-1.3 1.1-2.7.2-3.2s-2.5.1-3.6 1.4c-1 1.3-1.1 2.7-.1 3.2.9.5 2.5-.1 3.5-1.4m3.9 2.7c-1 1.2-2.5 1.8-3.4 1.4-.9-.5-.8-1.9.1-3.1 1-1.2 2.5-1.8 3.4-1.4 1 .5.9 1.9-.1 3.1m3.2 3.4c.9-1.2 1-2.5.1-2.9-.9-.5-2.3.1-3.3 1.3-.9 1.2-1 2.5-.1 2.9.9.5 2.4-.1 3.3-1.3m2.3 4.2c-.8 1-2.2 1.6-2.9 1.2-.8-.4-.7-1.6.1-2.6s2.2-1.6 2.9-1.2c.8.3.7 1.5-.1 2.6m1.4 4.7c-.8.9-1.9 1.4-2.6 1s-.6-1.4.1-2.4c.8-.9 1.9-1.4 2.6-1s.6 1.5-.1 2.4m.4 5.4c-.7.8-1.7 1.3-2.4.9-.6-.3-.6-1.3.1-2.1s1.7-1.3 2.4-.9c.7.3.6 1.2-.1 2.1m-.4 5.7c-.6.8-1.6 1.1-2.1.8-.6-.3-.5-1.2.1-1.9.6-.8 1.6-1.1 2.1-.8.6.3.5 1.1-.1 1.9m-1.3 6c-.6.7-1.4 1-1.9.8-.5-.3-.5-1 .1-1.7s1.4-1 1.9-.8c.5.3.5 1.1-.1 1.7m-2.3 6.2c-.4.5-1.1.8-1.4.6-.4-.2-.3-.8.1-1.3s1.1-.8 1.4-.6.3.8-.1 1.3m-3.2 6.2c-.3.4-.8.6-1.1.4s-.3-.6.1-1c.3-.4.8-.6 1.1-.4s.3.7-.1 1m-4.1 6.6c-.4.2-.7.1-.7-.3 0-.3.3-.8.7-.9.4-.2.7-.1.7.3 0 .3-.3.7-.7.9m-47.7-50.1c.3-.2.7-.2.8.1s-.1.6-.5.9c-.3.2-.7.2-.8-.1 0-.3.2-.7.5-.9m31.7 73.1c.4-.2.7-.2.8.1s-.1.7-.5.9c-.3.2-.7.2-.8-.1s.1-.7.5-.9m6.5-5.9c.5-.3.9-.3 1 .1s-.2.9-.6 1.2c-.5.3-.9.3-1-.1s.2-.9.6-1.2m6.1-6.5c.6-.4 1.2-.3 1.4.1.1.5-.2 1.2-.9 1.6-.6.4-1.3.3-1.4-.2-.2-.4.2-1.1.9-1.5m5.3-7.1c.8-.5 1.7-.5 1.9.2.2.6-.3 1.6-1.1 2.2-.8.5-1.7.4-1.9-.2-.2-.7.3-1.6 1.1-2.2m4.7-7.2c.9-.6 1.9-.5 2.1.2s-.4 1.8-1.3 2.4-1.9.5-2.1-.2.4-1.8 1.3-2.4m3.8-7.4c1-.7 2.1-.6 2.3.2s-.4 2-1.4 2.7-2.1.6-2.3-.2.4-2 1.4-2.7m2.9-7.4c1.1-.7 2.3-.6 2.6.3s-.4 2.2-1.6 3c-1.1.7-2.3.6-2.6-.3-.2-.9.5-2.2 1.6-3m.2-4c-.3-1 .5-2.5 1.8-3.3s2.6-.7 2.9.3-.5 2.5-1.8 3.3-2.6.7-2.9-.3m.6-6.7c-.3-1.1.5-2.7 2-3.7 1.4-.9 2.8-.8 3.2.3.3 1.1-.5 2.7-2 3.7-1.4 1-2.8.8-3.2-.3m-.3-6.3c-.4-1.2.6-2.9 2.1-3.9s3-.8 3.4.3c.4 1.2-.6 2.9-2.1 3.9s-3 .8-3.4-.3m-1.3-5.9c.4 1.2 1.9 1.4 3.5.4 1.5-1 2.5-2.8 2.1-4s-1.9-1.4-3.5-.4c-1.5 1-2.4 2.8-2.1 4m-2.1-5.3c-.4-1.2.6-2.9 2.1-3.9s3-.8 3.4.3c.4 1.2-.6 2.9-2.1 3.9s-3 .9-3.4-.3m-3.1-4.5c.3 1.1 1.8 1.2 3.2.3s2.3-2.6 2-3.6c-.3-1.1-1.8-1.2-3.2-.3-1.5.8-2.3 2.5-2 3.6m-3.9-3.8c-.3-1 .5-2.5 1.8-3.3s2.6-.7 2.9.3-.5 2.5-1.8 3.3-2.6.7-2.9-.3m-4.8-2.8c-.3-.9.4-2.2 1.6-3 1.2-.7 2.3-.6 2.6.3s-.4 2.2-1.6 3c-1.1.7-2.3.6-2.6-.3m-5.5-1.8c-.3-.8.4-2 1.4-2.7s2.1-.6 2.3.2c.3.8-.4 2-1.4 2.7s-2.1.6-2.3-.2m-6.2-.8c-.2-.7.3-1.8 1.3-2.4.9-.6 1.9-.5 2.1.2s-.3 1.8-1.3 2.4c-.9.6-1.9.5-2.1-.2m-6.7.3c-.2-.6.3-1.6 1.1-2.2.8-.5 1.7-.5 1.9.2.2.6-.3 1.6-1.1 2.2-.8.5-1.7.5-1.9-.2m-6.8 1.2c-.2-.5.2-1.2.9-1.6.6-.4 1.3-.3 1.4.1.2.5-.2 1.2-.9 1.6-.6.4-1.2.4-1.4-.1m-7.1 2.2c-.1-.4.2-.9.6-1.2.5-.3.9-.3 1.1.1.1.4-.2.9-.6 1.2-.5.3-1 .3-1.1-.1m-7.2 3.2c-.1-.3.1-.7.5-.9s.7-.2.8.1-.1.7-.5.9c-.3.3-.7.2-.8-.1m-1.5 98.7c-.4.1-.6-.1-.6-.4 0-.4.4-.7.8-.8s.6.1.6.4c-.1.3-.4.7-.8.8m14.6-111.7c.4-.1.7.1.6.4 0 .4-.4.8-.8.9s-.7-.1-.6-.4c0-.3.4-.7.8-.9m9-1.7c-.1.4-.4.8-.8.9s-.7-.1-.7-.5c.1-.4.4-.8.8-.9s.7.1.7.5m8.3-1.1c-.1.5-.6 1.1-1.1 1.3-.6.2-1-.1-.9-.6s.6-1.1 1.1-1.3c.6-.1 1 .1.9.6m7.9.1c-.1.7-.8 1.4-1.5 1.7-.7.2-1.3-.1-1.2-.8s.8-1.4 1.5-1.7c.8-.2 1.3.1 1.2.8m7.4 1.3c-.1.9-1 1.9-2 2.2s-1.7-.2-1.6-1.1 1-1.9 2-2.2c1.1-.3 1.8.2 1.6 1.1m6.4 2.4c-.1 1-1.1 2.1-2.2 2.5s-1.9-.2-1.7-1.2c.1-1 1.1-2.1 2.2-2.5 1-.3 1.8.2 1.7 1.2m5.4 3.6c-.2 1.1-1.3 2.4-2.5 2.8s-2.1-.2-1.9-1.3 1.3-2.4 2.5-2.8 2.1.2 1.9 1.3m4.5 4.6c.2-1.3-.8-1.9-2.1-1.5s-2.6 1.8-2.8 3.1.8 1.9 2.1 1.5c1.4-.4 2.6-1.8 2.8-3.1m3.4 5.6c-.2 1.4-1.6 2.9-3.1 3.4s-2.6-.3-2.4-1.7 1.6-2.9 3.1-3.4 2.6.3 2.4 1.7m2.2 6.3c-.2 1.6-1.7 3.3-3.4 3.8s-2.8-.3-2.6-1.8c.2-1.6 1.7-3.2 3.4-3.8 1.6-.6 2.8.2 2.6 1.8m.8 7.1c-.2 1.6-1.8 3.4-3.6 4s-3-.3-2.8-2c.2-1.6 1.8-3.4 3.6-4 1.8-.5 3.1.3 2.8 2m-4.1 11.7c-1.8.6-3.1-.3-2.8-2 .2-1.7 1.9-3.5 3.7-4.1s3.1.3 2.8 2c-.2 1.7-1.9 3.6-3.7 4.1m-1.7 8c-1.7.6-3-.3-2.7-2 .2-1.6 1.8-3.4 3.6-4 1.7-.6 3 .3 2.7 2-.2 1.6-1.8 3.4-3.6 4m-2.8 8.1c1.7-.5 3.2-2.2 3.4-3.8s-.9-2.4-2.6-1.9-3.2 2.2-3.4 3.8.9 2.5 2.6 1.9m-4 8.1c1.5-.5 2.9-2 3-3.4.2-1.4-.8-2.1-2.3-1.7-1.5.5-2.9 2-3 3.4-.2 1.4.9 2.2 2.3 1.7m-4.9 8c-1.3.4-2.3-.2-2.1-1.5s1.4-2.6 2.7-3.1c1.3-.4 2.3.2 2.1 1.5s-1.4 2.6-2.7 3.1m-5.9 7.7c-1.2.4-2-.2-1.9-1.3.2-1.1 1.3-2.4 2.5-2.8s2 .2 1.9 1.3c-.2 1.2-1.3 2.4-2.5 2.8m-6.6 7.3c-1.1.3-1.8-.2-1.7-1.2s1.1-2.1 2.2-2.5 1.8.2 1.7 1.2c-.2 1-1.2 2.1-2.2 2.5m-7.4 6.7c-1 .3-1.7-.2-1.5-1.1.1-.9 1-1.9 2-2.2s1.7.2 1.5 1.1c-.1.8-1 1.8-2 2.2m-8.9 4.9c.1-.7.8-1.4 1.5-1.7.7-.2 1.2.1 1.1.8s-.8 1.4-1.5 1.7c-.6.2-1.2-.1-1.1-.8m-6.9 5.7c-.5.2-.9-.1-.9-.6.1-.5.6-1.1 1.1-1.3s.9.1.9.6c-.1.6-.6 1.2-1.1 1.3m-8.3 4.1c-.4.1-.7-.1-.6-.5s.4-.8.8-.9.7.1.6.5-.4.8-.8.9M226.4.916c-.2.4-.7.8-1.1.7-.4 0-.5-.4-.3-.9.2-.4.7-.8 1.1-.7s.6.5.3.9m-70.1 133.4c-.2.4-.7.7-1 .7-.4 0-.5-.4-.3-.8s.7-.7 1.1-.7c.3 0 .4.3.2.8m8.2-.8c.4 0 .5.5.3.9-.2.5-.8.8-1.2.8s-.5-.5-.3-.9c.3-.5.8-.8 1.2-.8m9.2-1.4c.5.1.7.6.4 1.2s-1 1.1-1.6 1c-.5-.1-.7-.6-.4-1.2.4-.6 1.1-1 1.6-1m9.6-2.9c.7.1.9.8.5 1.6s-1.4 1.4-2.1 1.4c-.7-.1-.9-.8-.5-1.6.5-.8 1.4-1.4 2.1-1.4m9.9-4.3c1 .1 1.3 1.1.7 2.2s-1.8 1.9-2.8 1.8c-.9-.1-1.3-1.1-.7-2.2.6-1 1.8-1.9 2.8-1.8m9.7-5.2c1.1.1 1.4 1.2.7 2.4-.6 1.2-2 2.1-3.1 2s-1.4-1.2-.7-2.4c.6-1.2 2-2.1 3.1-2m9.4-6.3c1.2.1 1.5 1.3.8 2.7s-2.3 2.4-3.4 2.3c-1.2-.1-1.5-1.3-.8-2.7.7-1.5 2.3-2.5 3.4-2.3m9.1-7.4c1.3.1 1.7 1.5.9 3s-2.5 2.6-3.8 2.5-1.7-1.5-.9-3 2.5-2.6 3.8-2.5m8.6-8.3c-1.5-.2-3.4 1.1-4.3 2.8s-.4 3.2 1 3.3c1.5.2 3.4-1.1 4.3-2.8.9-1.6.5-3.1-1-3.3m7.8-8.9c-1.6-.2-3.7 1.2-4.7 3.1s-.5 3.5 1.1 3.7 3.7-1.2 4.7-3.1.5-3.5-1.1-3.7m1.8-6.1c1.1-2 3.3-3.4 5-3.3 1.7.2 2.2 1.9 1.2 3.9-1.1 2-3.3 3.4-5 3.3s-2.2-1.9-1.2-3.9m5.6-9.4c1.1-2.1 3.4-3.6 5.2-3.4s2.3 2 1.2 4.1c-1.1 2-3.4 3.6-5.2 3.4-1.8-.3-2.3-2.1-1.2-4.1m4.6-9.6c1.1-2 3.3-3.4 5-3.3 1.7.2 2.2 1.9 1.2 3.9-1.1 2-3.3 3.4-5 3.3-1.7-.2-2.3-1.9-1.2-3.9m3.4-9.5c-1 1.9-.5 3.5 1.1 3.7s3.8-1.2 4.8-3.1.5-3.5-1.1-3.7c-1.6-.1-3.8 1.2-4.8 3.1m2.2-9.2c.9-1.7 2.8-2.9 4.3-2.8s1.9 1.6 1 3.3-2.8 2.9-4.3 2.8c-1.4-.1-1.9-1.6-1-3.3m.8-8.7c.8-1.5 2.6-2.6 3.9-2.5s1.7 1.5.9 3-2.6 2.6-3.9 2.5c-1.3-.2-1.7-1.5-.9-3m-.7-8.2c.7-1.4 2.3-2.4 3.5-2.3s1.6 1.3.8 2.7c-.7 1.4-2.3 2.4-3.5 2.3-1.1-.1-1.5-1.3-.8-2.7m-2-7.3c.7-1.2 2.1-2.1 3.2-2s1.4 1.2.7 2.4-2.1 2.1-3.2 2c-1-.1-1.4-1.2-.7-2.4m-3.4-6.4c.6-1.1 1.9-1.9 2.8-1.8 1 .1 1.3 1.1.7 2.2s-1.9 1.9-2.8 1.8c-1-.1-1.3-1.1-.7-2.2m-4.5-5.2c.4-.8 1.4-1.4 2.1-1.4.7.1 1 .8.5 1.6-.4.8-1.4 1.4-2.1 1.4-.7-.1-.9-.8-.5-1.6m-5.7-4.1c.3-.6 1-1.1 1.6-1 .5.1.7.6.4 1.2s-1 1.1-1.6 1-.8-.6-.4-1.2m-6.6-1.9c-.4 0-.5-.5-.3-.9.3-.5.8-.8 1.2-.8s.5.5.3.9c-.3.5-.8.8-1.2.8m26.1 1.6c-.5.4-1 .5-1.3.2s-.1-.9.4-1.3 1-.5 1.3-.2c.2.3 0 .9-.4 1.3m4.7 6.9c-.5.4-1.1.6-1.4.2-.3-.3-.1-.9.4-1.4.5-.4 1.1-.6 1.4-.2.3.3.1.9-.4 1.4m3.4 8.2c-.6.6-1.5.7-1.8.3-.4-.4-.1-1.2.5-1.8s1.5-.7 1.8-.3c.4.4.1 1.2-.5 1.8m1.8 9.2c-.9.8-1.9 1-2.4.4-.5-.5-.2-1.6.7-2.4s1.9-1 2.4-.4.2 1.6-.7 2.4m.3 10.2c-1.1 1.1-2.6 1.3-3.2.6s-.2-2.2.9-3.2c1.1-1.1 2.6-1.3 3.2-.6s.2 2.1-.9 3.2m-1.5 10.6c-1.3 1.2-2.9 1.5-3.5.6-.7-.8-.2-2.4 1-3.6 1.3-1.2 2.9-1.5 3.6-.6.6.8.2 2.4-1.1 3.6m-3 11c-1.4 1.3-3.2 1.6-3.9.7-.8-.9-.2-2.7 1.2-4s3.2-1.6 3.9-.7.2 2.7-1.2 4m-4.5 11.1c1.6-1.4 2.1-3.4 1.3-4.4s-2.8-.6-4.4.8-2.1 3.4-1.3 4.4c.9 1 2.8.7 4.4-.8m-5.9 11.2c1.7-1.6 2.4-3.8 1.4-4.9-.9-1.1-3.1-.7-4.8.9s-2.4 3.8-1.4 4.9c.9 1.1 3.1.7 4.8-.9m-12.5 11.8c-1-1.2-.3-3.7 1.6-5.5s4.3-2.2 5.4-1c1 1.2.3 3.7-1.6 5.5s-4.3 2.3-5.4 1m-8.5 10.4c-1.1-1.3-.4-3.9 1.7-5.8 2-1.9 4.6-2.3 5.7-1s.3 3.9-1.7 5.8c-2.1 1.8-4.6 2.3-5.7 1m-9.4 9.5c1.1 1.3 3.7.9 5.8-1.1 2.1-1.9 2.9-4.6 1.7-6-1.1-1.3-3.8-.9-5.8 1.1-2.1 2-2.9 4.7-1.7 6m-9.9 8.4c1.1 1.3 3.6.8 5.6-1 2-1.9 2.8-4.5 1.7-5.8s-3.6-.8-5.6 1c-2.1 1.9-2.8 4.5-1.7 5.8m-10.4 7.3c1 1.2 3.4.8 5.3-1s2.6-4.2 1.6-5.5c-1-1.2-3.4-.8-5.3 1-2 1.8-2.7 4.3-1.6 5.5m-10.5 5.9c-.9-1.1-.3-3.3 1.4-4.9s3.9-2 4.8-.9.3 3.3-1.4 4.9c-1.8 1.7-3.9 2.1-4.8.9m-10.7 4.6c-.8-1-.3-3 1.2-4.4s3.5-1.8 4.3-.8c.9 1 .3 3-1.2 4.4-1.5 1.5-3.5 1.8-4.3.8m-10.6 3.2c-.8-.9-.3-2.7 1.1-4s3.1-1.6 3.9-.7.3 2.7-1.1 4-3.1 1.6-3.9.7m-10.3 1.7c-.7-.8-.3-2.4 1-3.6 1.2-1.2 2.8-1.4 3.5-.6s.2 2.4-1 3.6c-1.3 1.1-2.8 1.4-3.5.6m-9.8.2c-.6-.7-.2-2.2.9-3.2s2.5-1.3 3.1-.6.2 2.2-.9 3.2-2.5 1.3-3.1.6m-8.8-1.7c-.5-.5-.2-1.6.7-2.4.8-.8 1.9-1 2.4-.4.5.5.2 1.6-.7 2.4s-1.9 1-2.4.4m-8-3.1c-.4-.4-.1-1.2.5-1.8s1.4-.7 1.8-.3.1 1.2-.5 1.8c-.7.6-1.5.7-1.8.3m-7.1-4.5c-.3-.3-.1-.9.4-1.4.5-.4 1.1-.6 1.3-.2.3.3.1.9-.4 1.4-.4.4-1 .6-1.3.2" clip-rule="evenodd"/><path fill="#0e4f5e" fill-rule="evenodd" d="M26.6 66.616H10.8v-.6c0-1.5.3-3.2 1.6-4.1s3.2-1.1 4.8-1.1c2.1 0 4.2.2 6.3.4v-6.1c-2.1-.4-4.2-.7-6.3-.7-8 0-13.1 3.2-13.1 11.6v.6H0v6.4h4.1v21.5h6.7v-21.5h9.1v21.5h6.7zm14.1 0H34v27.9h6.7v-15.1c0-2 .4-4.1 1.8-5.6 1.3-1.3 3-1.9 4.8-1.9 1.6 0 3.2.4 4.4 1.6 1.3 1.2 1.7 2.9 1.7 4.6v16.3h6.7v-17.1c0-3.1-.7-6.2-3-8.5-2-2.1-4.6-3-7.5-3-3.3 0-6.3 1-8.2 3.9l-.7 1zm33.1 0h-6.7v39.4h6.7v-15.5l.6.8c2.3 2.9 5.4 4 9 4 3.8 0 7-1.5 9.6-4.3 2.8-2.9 4-6.5 4-10.5s-1.2-7.6-4-10.5c-2.6-2.8-5.8-4.3-9.6-4.3-3.6 0-6.7 1.2-9 4l-.6.8zm2.3 20c-1.6-1.7-2.3-3.7-2.3-6.1 0-2.3.7-4.4 2.3-6.1 1.6-1.6 3.6-2.4 5.9-2.4s4.3.7 6 2.4 2.4 3.7 2.4 6.1c0 2.3-.7 4.4-2.4 6.1-1.6 1.6-3.7 2.4-6 2.4-2.2 0-4.3-.8-5.9-2.4m54.1-3.4c.1-.9.2-1.8.2-2.7 0-4-1.2-7.6-4-10.5-2.7-2.9-6.2-4.2-10.1-4.2-4.1 0-7.7 1.3-10.6 4.2s-4.1 6.5-4.1 10.5c0 4.1 1.3 7.7 4.2 10.6 3 3 6.9 4.2 11.1 4.2 4.9 0 9.1-1.7 12-5.7l-5.4-3.1c-1.6 2-3.9 2.8-6.5 2.8-4.1 0-7.3-1.5-8.4-5.6l-.1-.5zm-21.8-5.4q.6-2.7 2.7-4.5c1.5-1.2 3.3-1.6 5.1-1.6 1.7 0 3.3.5 4.7 1.5 1.5 1.1 2.4 2.8 2.7 4.6l.1.4h-15.5zm34.5-11.2h-6.7v27.9h6.7v-13.3c0-2.5.7-4.8 2.8-6.2 1.8-1.2 3.8-1.6 5.9-1.5v-7.5c-1.7.1-3.3.5-4.8 1.3-1.6.9-2.6 2.3-3.3 3.9l-.7 1.8v-6.4zm17.1-4.2q1.8 0 3-1.2c.8-.8 1.2-1.8 1.2-2.9 0-1.2-.4-2.1-1.2-3-.8-.8-1.8-1.3-3-1.3s-2.1.4-2.9 1.3q-1.2 1.2-1.2 3c0 1.2.4 2.1 1.2 2.9.7.8 1.7 1.2 2.9 1.2m-3.4 32.1h6.7v-27.9h-6.7zm29.9-21.5v-6.4H180v-7.9l-6.7 2v5.9h-5v6.4h5v12.3c0 2.8.5 6.1 3 7.9 2.6 1.9 7.1 1.7 10.2 1.4v-6c-1.1.1-2.2.1-3.2 0-.9-.1-1.7-.3-2.4-.9s-.9-1.6-.9-2.4v-12.3zm9.2-10.6q1.8 0 3-1.2c.8-.8 1.2-1.8 1.2-2.9 0-1.2-.4-2.1-1.2-3-.8-.8-1.8-1.3-3-1.3s-2.1.4-2.9 1.3q-1.2 1.2-1.2 3c0 1.2.4 2.1 1.2 2.9s1.7 1.2 2.9 1.2m-3.3 32.1h6.7v-27.9h-6.7z" clip-rule="evenodd"/><path fill="#0e4f5e" d="M214.339 60.296c.358 0 .618-.072.774-.208.156-.13.24-.351.24-.663 0-.306-.084-.52-.24-.657q-.236-.195-.774-.195h-.728v1.723zm-.728 1.19v2.534h-1.729v-6.7h2.639q1.325 0 1.937.448c.416.293.618.76.618 1.404q.002.663-.319 1.092c-.214.28-.533.494-.968.624.24.059.448.182.637.37.188.19.377.475.565.865l.943 1.898h-1.84l-.819-1.664c-.162-.331-.331-.565-.5-.682q-.255-.187-.676-.189z"/><path fill="#0e4f5e" d="M214.69 54.316a6.5 6.5 0 1 1 0 13 6.5 6.5 0 0 1 0-13m0 1.3a5.2 5.2 0 1 0 .001 10.4 5.2 5.2 0 0 0-.001-10.4"/><defs><linearGradient id="a" x1="196.826" x2="196.079" y1="145.983" y2="4.61" gradientUnits="userSpaceOnUse"><stop stop-color="#0e4f5e"/><stop offset="1" stop-color="#0e9f90"/></linearGradient></defs></svg>